<?xml version="1.0" encoding="utf-8"?>
<svg xmlns="http://www.w3.org/2000/svg" viewBox="0 0 512 512" fill="currentColor" aria-hidden="true">
  <path d="M 183.84 255.58 C 183.84 215.499 216.329 183.006 256.41 183 C 296.508 182.972 329.023 215.482 329 255.58 C 329 295.658 296.508 328.146 256.43 328.14 C 216.353 328.146 183.86 295.658 183.86 255.58 L 183.84 255.58 Z M 187.02 255.58 C 187.054 293.894 218.096 324.951 256.41 325 C 294.731 325 325.799 293.941 325.81 255.62 C 325.777 217.3 294.73 186.24 256.41 186.19 C 218.091 186.207 187.028 217.261 187 255.58 L 187.02 255.58 Z M 256.44 244.14 C 247.642 244.171 242.176 253.715 246.602 261.32 C 251.028 268.924 262.026 268.886 266.399 261.25 C 267.386 259.527 267.907 257.576 267.91 255.59 C 267.911 249.255 262.766 244.124 256.43 244.14 L 256.44 244.14 Z M 125.36 255.57 C 125.348 291.227 139.907 325.34 165.66 350 L 190.34 323.31 L 190.67 323.61 C 138.224 273.098 160.126 184.753 230.094 164.589 C 254.856 157.453 281.459 160.729 303.75 173.66 L 321.26 141.71 C 301.528 130.409 279.18 124.473 256.44 124.49 C 184.17 124.5 125.36 183.3 125.36 255.57 Z M 351.09 255.57 C 351.14 326.777 275.471 372.51 212.45 339.36 L 194.62 371.1 C 213.623 381.317 234.866 386.653 256.44 386.63 C 328.72 386.63 387.52 327.83 387.52 255.55 C 387.537 221.143 373.979 188.119 349.79 163.65 L 325 190.39 C 341.771 207.952 351.12 231.307 351.1 255.59 L 351.09 255.57 Z M 83.75 255.57 C 83.726 302.839 103.137 348.039 137.43 380.57 L 162.43 353.5 C 135.709 327.949 120.599 292.582 120.61 255.61 C 120.61 180.73 181.53 119.81 256.41 119.81 C 279.94 119.793 303.065 125.929 323.49 137.61 L 341.22 105.27 C 315.364 90.598 286.139 82.897 256.41 82.92 C 161.22 82.89 83.75 160.35 83.75 255.57 Z M 392.24 255.57 C 392.24 330.45 331.32 391.37 256.44 391.37 C 234.053 391.392 212.011 385.845 192.3 375.23 L 174.23 407.4 C 199.457 421.122 227.723 428.294 256.44 428.26 C 351.66 428.26 429.13 350.79 429.13 255.57 C 429.156 209.597 410.792 165.524 378.13 133.17 L 353.01 160.17 C 378.167 185.545 392.269 219.839 392.24 255.57 Z M 433.85 255.57 C 433.85 353.4 354.27 433 256.44 433 C 226.915 433.036 197.853 425.657 171.92 411.54 L 153.74 443.9 C 185.22 461.149 220.545 470.171 256.44 470.13 C 374.74 470.11 471 373.87 471 255.57 C 471.014 197.982 447.804 142.823 406.62 102.57 L 381.36 129.75 C 414.969 162.99 433.872 208.301 433.85 255.57 Z M 41.85 255.57 C 41.837 314.494 66.131 370.814 109 411.24 L 134.23 384 C 98.966 350.591 78.994 304.148 79 255.57 C 79 157.75 158.59 78.16 256.41 78.16 C 286.933 78.135 316.939 86.036 343.49 101.09 L 361.33 68.54 C 329.326 50.47 293.193 40.983 256.44 41 C 138.14 41 41.9 137.28 41.9 255.57 L 41.85 255.57 Z M 434.4 72.57 L 409.76 99.06 C 451.939 140.209 475.716 196.644 475.7 255.57 C 475.7 376.47 377.34 474.83 256.44 474.83 C 219.739 474.869 183.622 465.637 151.44 447.99 L 133.2 480.46 C 170.833 501.127 213.067 511.974 256 512 C 397.39 512 512 397.36 512 256 C 512.05 186.885 484.067 120.705 434.45 72.59 L 434.4 72.57 Z M 37.13 255.57 C 37.13 134.67 135.49 36.31 256.39 36.31 C 293.944 36.278 330.869 45.954 363.58 64.4 L 381 32.65 C 344.056 11.868 302.504 0.645 260.12 0 L 256 0 C 115.46 0.22 1.58 113.26 0 253.5 L 0 256 C 0.048 326.471 29.178 393.799 80.51 442.08 L 105.82 414.72 C 61.99 373.394 37.155 315.812 37.18 255.57 L 37.13 255.57 Z"/>
</svg>