<?xml version="1.0" encoding="utf-8"?>
<svg version="1.1" id="logos" xmlns="http://www.w3.org/2000/svg" x="0px" y="0px" viewBox="0 0 40 40" enable-background="new 0 0 125 40">
  <path d="M 39.874 20 C 39.874 24.971 38.049 29.516 35.033 33.001 L 33.28 31.228 C 35.844 28.198 37.39 24.28 37.39 20 C 37.39 10.396 29.604 2.611 20 2.611 C 10.396 2.611 2.611 10.396 2.611 20 C 2.611 29.604 10.396 37.39 20 37.39 C 24.245 37.39 28.134 35.869 31.153 33.343 L 32.928 35.095 C 29.453 38.074 24.936 39.874 19.999 39.874 C 9.023 39.874 0.126 30.977 0.126 20 C 0.126 9.024 9.023 0.127 19.999 0.127 C 30.976 0.127 39.873 9.024 39.873 20 Z M 34.286 20 C 34.286 23.404 33.096 26.53 31.108 28.984 L 28.774 26.622 C 28.492 26.244 28.046 26 27.543 26 C 26.691 26 26 26.697 26 27.557 C 26 27.975 26.166 28.356 26.433 28.637 C 26.45 28.656 26.47 28.674 26.489 28.692 L 28.958 31.129 C 26.508 33.104 23.392 34.286 20 34.286 C 12.11 34.286 5.715 27.89 5.715 20 C 5.715 12.11 12.11 5.715 20 5.715 C 27.89 5.715 34.286 12.11 34.286 20 Z M 20 14.411 C 16.876 14.411 14.345 16.914 14.345 20 C 14.345 23.087 16.876 25.59 20 25.59 C 23.124 25.59 25.656 23.087 25.656 20 C 25.656 16.914 23.124 14.411 20 14.411 Z M 21.222 20 C 21.222 20.675 20.675 21.222 20 21.222 C 19.325 21.222 18.778 20.675 18.778 20 C 18.778 19.325 19.325 18.778 20 18.778 C 20.675 18.778 21.222 19.325 21.222 20 Z" style="stroke-width: 1.242;"/>
</svg>