<?xml version="1.0" encoding="utf-8"?>
<svg xmlns="http://www.w3.org/2000/svg" width="100px" height="100px">
  <path fill="currentColor" d="M 100 50 C 100 77.614 77.614 100 50 100 C 22.386 100 0 77.614 0 50 C 0 22.386 22.386 0 50 0 C 77.614 0 100 22.386 100 50 Z M 58.392 30.638 C 52.947 30.695 47.525 32.581 43.41 36.264 C 41.142 38.344 38.962 40.517 36.875 42.777 C 34.714 45.12 34.862 48.779 37.215 50.928 C 39.569 53.083 43.222 52.931 45.388 50.586 L 51.117 44.857 C 55.448 40.981 62.37 41.652 65.882 44.676 C 68.553 46.972 70.134 50.04 70.338 53.314 C 70.524 56.401 69.445 59.43 67.349 61.703 L 54.311 74.809 C 52.003 77.014 51.924 80.663 54.13 82.971 C 56.336 85.272 59.988 85.358 62.301 83.164 L 75.919 69.467 C 80.112 64.89 82.262 58.804 81.876 52.61 C 81.489 46.21 78.499 40.288 73.442 35.935 C 69.27 32.343 63.825 30.581 58.38 30.638 L 58.392 30.638 Z M 41.159 15.747 C 39.772 15.781 38.397 16.315 37.317 17.35 L 23.7 31.047 C 19.506 35.619 17.352 41.7 17.732 47.893 C 18.164 54.362 21.208 60.378 26.166 64.557 C 30.27 68.091 35.612 69.865 40.966 69.865 C 46.562 69.917 51.981 67.915 56.198 64.238 C 59.199 61.556 62.586 57.884 62.733 57.724 C 64.882 55.372 64.729 51.729 62.393 49.563 C 60.041 47.416 56.396 47.568 54.232 49.905 L 48.491 55.644 C 44.16 59.509 37.238 58.85 33.726 55.827 C 31.129 53.672 29.525 50.553 29.281 47.188 C 29.088 44.108 30.157 41.129 32.271 38.788 L 45.309 25.693 C 47.616 23.488 47.695 19.839 45.49 17.531 C 44.362 16.354 42.79 15.706 41.159 15.747 Z" style="stroke: rgb(0, 0, 0); vector-effect: non-scaling-stroke; fill: none;"/>
</svg>