<?xml version="1.0" encoding="utf-8"?>
<svg width="40px" height="40px" viewBox="0 0 40 40" version="1.1" id="svg4" xmlns="http://www.w3.org/2000/svg">
  <path d="M 20.793 0.016 C 9.756 -0.423 0.453 8.169 0.016 19.207 C -0.423 30.244 8.171 39.545 19.207 39.984 C 30.244 40.423 39.545 31.831 39.984 20.793 C 40.421 9.756 31.829 0.453 20.793 0.016 Z M 29.235 29.314 C 28.987 29.752 28.502 29.972 28.031 29.906 C 27.886 29.886 27.742 29.838 27.607 29.762 C 24.963 28.257 22.082 27.277 19.044 26.85 C 16.006 26.422 12.966 26.57 10.01 27.288 C 9.368 27.444 8.723 27.051 8.568 26.409 C 8.412 25.767 8.805 25.122 9.447 24.967 C 12.697 24.177 16.039 24.014 19.377 24.484 C 22.715 24.954 25.881 26.031 28.789 27.685 C 29.361 28.012 29.562 28.74 29.237 29.314 L 29.235 29.314 Z M 31.864 24.064 C 31.456 24.817 30.513 25.098 29.76 24.691 C 26.667 23.018 23.318 21.919 19.806 21.426 C 16.295 20.932 12.774 21.066 9.339 21.821 C 9.153 21.861 8.968 21.868 8.789 21.843 C 8.165 21.755 7.632 21.291 7.489 20.638 C 7.304 19.801 7.835 18.973 8.672 18.788 C 12.469 17.953 16.36 17.805 20.24 18.349 C 24.117 18.894 27.819 20.108 31.237 21.958 C 31.992 22.365 32.272 23.307 31.864 24.062 L 31.864 24.064 Z M 34.778 18.146 C 34.394 18.885 33.595 19.267 32.816 19.157 C 32.606 19.128 32.4 19.062 32.2 18.96 C 28.599 17.086 24.72 15.849 20.671 15.28 C 16.622 14.712 12.551 14.832 8.573 15.64 C 7.538 15.85 6.531 15.181 6.321 14.148 C 6.111 13.114 6.78 12.107 7.813 11.896 C 12.218 11.002 16.722 10.869 21.203 11.498 C 25.683 12.127 29.976 13.498 33.964 15.573 C 34.9 16.059 35.264 17.212 34.778 18.148 L 34.778 18.146 Z" fill="white" id="path1" style="fill:#000000;fill-opacity:1;stroke-width:1"/>
</svg>